<svg id="visual" viewBox="0 0 900 600" width="900" height="600" xmlns="http://www.w3.org/2000/svg" xmlns:xlink="http://www.w3.org/1999/xlink" version="1.1"><rect x="0" y="0" width="900" height="600" fill="#143b84"></rect><defs><linearGradient id="grad1_0" x1="33.3%" y1="0%" x2="100%" y2="100%"><stop offset="20%" stop-color="#1cb3e5" stop-opacity="1"></stop><stop offset="80%" stop-color="#1cb3e5" stop-opacity="1"></stop></linearGradient></defs><defs><linearGradient id="grad1_1" x1="33.3%" y1="0%" x2="100%" y2="100%"><stop offset="20%" stop-color="#1cb3e5" stop-opacity="1"></stop><stop offset="80%" stop-color="#0076ba" stop-opacity="1"></stop></linearGradient></defs><defs><linearGradient id="grad1_2" x1="33.3%" y1="0%" x2="100%" y2="100%"><stop offset="20%" stop-color="#143b84" stop-opacity="1"></stop><stop offset="80%" stop-color="#0076ba" stop-opacity="1"></stop></linearGradient></defs><defs><linearGradient id="grad2_0" x1="0%" y1="0%" x2="66.7%" y2="100%"><stop offset="20%" stop-color="#1cb3e5" stop-opacity="1"></stop><stop offset="80%" stop-color="#1cb3e5" stop-opacity="1"></stop></linearGradient></defs><defs><linearGradient id="grad2_1" x1="0%" y1="0%" x2="66.7%" y2="100%"><stop offset="20%" stop-color="#0076ba" stop-opacity="1"></stop><stop offset="80%" stop-color="#1cb3e5" stop-opacity="1"></stop></linearGradient></defs><defs><linearGradient id="grad2_2" x1="0%" y1="0%" x2="66.7%" y2="100%"><stop offset="20%" stop-color="#0076ba" stop-opacity="1"></stop><stop offset="80%" stop-color="#143b84" stop-opacity="1"></stop></linearGradient></defs><g transform="translate(900, 0)"><path d="M0 459.7C-40.8 429.7 -81.6 399.8 -125.5 386.1C-169.4 372.5 -216.4 375.2 -261.6 360C-306.7 344.9 -350.1 311.9 -371.9 270.2C-393.8 228.5 -394.1 178.1 -405.2 131.6C-416.2 85.2 -438 42.6 -459.7 0L0 0Z" fill="#0058a0"></path><path d="M0 306.5C-27.2 286.5 -54.4 266.5 -83.6 257.4C-112.9 248.3 -144.3 250.1 -174.4 240C-204.5 229.9 -233.4 207.9 -247.9 180.1C-262.5 152.4 -262.7 118.8 -270.1 87.8C-277.5 56.8 -292 28.4 -306.5 0L0 0Z" fill="#0094d1"></path><path d="M0 153.2C-13.6 143.2 -27.2 133.3 -41.8 128.7C-56.5 124.2 -72.1 125.1 -87.2 120C-102.2 115 -116.7 104 -124 90.1C-131.3 76.2 -131.4 59.4 -135.1 43.9C-138.7 28.4 -146 14.2 -153.2 0L0 0Z" fill="#1cb3e5"></path></g><g transform="translate(0, 600)"><path d="M0 -459.7C39.4 -427.9 78.7 -396.1 125.5 -386.1C172.2 -376.2 226.2 -388 270.2 -371.9C314.2 -355.8 348 -311.8 367.3 -266.9C386.6 -221.9 391.2 -176 404.2 -131.3C417.2 -86.7 438.4 -43.3 459.7 0L0 0Z" fill="#0058a0"></path><path d="M0 -306.5C26.2 -285.3 52.5 -264.1 83.6 -257.4C114.8 -250.8 150.8 -258.7 180.1 -247.9C209.4 -237.2 232 -207.9 244.9 -177.9C257.7 -147.9 260.8 -117.3 269.5 -87.6C278.1 -57.8 292.3 -28.9 306.5 0L0 0Z" fill="#0094d1"></path><path d="M0 -153.2C13.1 -142.6 26.2 -132 41.8 -128.7C57.4 -125.4 75.4 -129.3 90.1 -124C104.7 -118.6 116 -103.9 122.4 -89C128.9 -74 130.4 -58.7 134.7 -43.8C139.1 -28.9 146.1 -14.4 153.2 0L0 0Z" fill="#1cb3e5"></path></g></svg>