<svg id="visual" viewBox="0 0 900 600" width="900" height="600" xmlns="http://www.w3.org/2000/svg" xmlns:xlink="http://www.w3.org/1999/xlink" version="1.1"><rect x="0" y="0" width="900" height="600" fill="#0651C0"></rect><path d="M0 373L13.7 368.5C27.3 364 54.7 355 82 351C109.3 347 136.7 348 163.8 358C191 368 218 387 245.2 382.3C272.3 377.7 299.7 349.3 327 345.5C354.3 341.7 381.7 362.3 409 374.5C436.3 386.7 463.7 390.3 491 384.8C518.3 379.3 545.7 364.7 573 359.8C600.3 355 627.7 360 654.8 357.2C682 354.3 709 343.7 736.2 341.7C763.3 339.7 790.7 346.3 818 359.5C845.3 372.7 872.7 392.3 886.3 402.2L900 412L900 601L886.3 601C872.7 601 845.3 601 818 601C790.7 601 763.3 601 736.2 601C709 601 682 601 654.8 601C627.7 601 600.3 601 573 601C545.7 601 518.3 601 491 601C463.7 601 436.3 601 409 601C381.7 601 354.3 601 327 601C299.7 601 272.3 601 245.2 601C218 601 191 601 163.8 601C136.7 601 109.3 601 82 601C54.7 601 27.3 601 13.7 601L0 601Z" fill="#143b84"></path><path d="M0 406L13.7 416.8C27.3 427.7 54.7 449.3 82 460.2C109.3 471 136.7 471 163.8 452.8C191 434.7 218 398.3 245.2 383C272.3 367.7 299.7 373.3 327 381.5C354.3 389.7 381.7 400.3 409 396.3C436.3 392.3 463.7 373.7 491 377.2C518.3 380.7 545.7 406.3 573 411.2C600.3 416 627.7 400 654.8 406C682 412 709 440 736.2 436.7C763.3 433.3 790.7 398.7 818 378.7C845.3 358.7 872.7 353.3 886.3 350.7L900 348L900 601L886.3 601C872.7 601 845.3 601 818 601C790.7 601 763.3 601 736.2 601C709 601 682 601 654.8 601C627.7 601 600.3 601 573 601C545.7 601 518.3 601 491 601C463.7 601 436.3 601 409 601C381.7 601 354.3 601 327 601C299.7 601 272.3 601 245.2 601C218 601 191 601 163.8 601C136.7 601 109.3 601 82 601C54.7 601 27.3 601 13.7 601L0 601Z" fill="#5b66a2"></path><path d="M0 456L13.7 457.8C27.3 459.7 54.7 463.3 82 463.8C109.3 464.3 136.7 461.7 163.8 467.5C191 473.3 218 487.7 245.2 481C272.3 474.3 299.7 446.7 327 441.8C354.3 437 381.7 455 409 455.2C436.3 455.3 463.7 437.7 491 431.7C518.3 425.7 545.7 431.3 573 441.8C600.3 452.3 627.7 467.7 654.8 481.3C682 495 709 507 736.2 493.3C763.3 479.7 790.7 440.3 818 428.5C845.3 416.7 872.7 432.3 886.3 440.2L900 448L900 601L886.3 601C872.7 601 845.3 601 818 601C790.7 601 763.3 601 736.2 601C709 601 682 601 654.8 601C627.7 601 600.3 601 573 601C545.7 601 518.3 601 491 601C463.7 601 436.3 601 409 601C381.7 601 354.3 601 327 601C299.7 601 272.3 601 245.2 601C218 601 191 601 163.8 601C136.7 601 109.3 601 82 601C54.7 601 27.3 601 13.7 601L0 601Z" fill="#9296c1"></path><path d="M0 507L13.7 502.2C27.3 497.3 54.7 487.7 82 492.8C109.3 498 136.7 518 163.8 517.3C191 516.7 218 495.3 245.2 484C272.3 472.7 299.7 471.3 327 482.8C354.3 494.3 381.7 518.7 409 530.5C436.3 542.3 463.7 541.7 491 527.2C518.3 512.7 545.7 484.3 573 485C600.3 485.7 627.7 515.3 654.8 514.7C682 514 709 483 736.2 472.5C763.3 462 790.7 472 818 479.5C845.3 487 872.7 492 886.3 494.5L900 497L900 601L886.3 601C872.7 601 845.3 601 818 601C790.7 601 763.3 601 736.2 601C709 601 682 601 654.8 601C627.7 601 600.3 601 573 601C545.7 601 518.3 601 491 601C463.7 601 436.3 601 409 601C381.7 601 354.3 601 327 601C299.7 601 272.3 601 245.2 601C218 601 191 601 163.8 601C136.7 601 109.3 601 82 601C54.7 601 27.3 601 13.7 601L0 601Z" fill="#c8c9e0"></path><path d="M0 523L13.7 526.5C27.3 530 54.7 537 82 540.2C109.3 543.3 136.7 542.7 163.8 540C191 537.3 218 532.7 245.2 533.3C272.3 534 299.7 540 327 539.3C354.3 538.7 381.7 531.3 409 527C436.3 522.7 463.7 521.3 491 517.8C518.3 514.3 545.7 508.7 573 510C600.3 511.3 627.7 519.7 654.8 520.8C682 522 709 516 736.2 518.8C763.3 521.7 790.7 533.3 818 533.8C845.3 534.3 872.7 523.7 886.3 518.3L900 513L900 601L886.3 601C872.7 601 845.3 601 818 601C790.7 601 763.3 601 736.2 601C709 601 682 601 654.8 601C627.7 601 600.3 601 573 601C545.7 601 518.3 601 491 601C463.7 601 436.3 601 409 601C381.7 601 354.3 601 327 601C299.7 601 272.3 601 245.2 601C218 601 191 601 163.8 601C136.7 601 109.3 601 82 601C54.7 601 27.3 601 13.7 601L0 601Z" fill="#ffffff"></path></svg>