<svg id="visual" viewBox="0 0 900 600" width="900" height="600" xmlns="http://www.w3.org/2000/svg" xmlns:xlink="http://www.w3.org/1999/xlink" version="1.1"><path d="M0 493L180 432L360 456L540 426L720 478L900 447L900 601L720 601L540 601L360 601L180 601L0 601Z" fill="#143b84"></path><path d="M0 500L180 520L360 463L540 517L720 470L900 503L900 601L720 601L540 601L360 601L180 601L0 601Z" fill="#6e76ad"></path><path d="M0 518L180 512L360 546L540 499L720 547L900 528L900 601L720 601L540 601L360 601L180 601L0 601Z" fill="#b6b8d6"></path><path d="M0 535L180 531L360 546L540 536L720 566L900 543L900 601L720 601L540 601L360 601L180 601L0 601Z" fill="#ffffff"></path></svg>