<svg id="visual" viewBox="0 0 900 600" width="900" height="600" xmlns="http://www.w3.org/2000/svg" xmlns:xlink="http://www.w3.org/1999/xlink" version="1.1"><path d="M0 61L11.5 60C23 59 46 57 69 59C92 61 115 67 138.2 76C161.3 85 184.7 97 207.8 104C231 111 254 113 277 112C300 111 323 107 346 97C369 87 392 71 415.2 67C438.3 63 461.7 71 484.8 72C508 73 531 67 554 68C577 69 600 77 623 76C646 75 669 65 692.2 67C715.3 69 738.7 83 761.8 82C785 81 808 65 831 59C854 53 877 57 888.5 59L900 61L900 0L888.5 0C877 0 854 0 831 0C808 0 785 0 761.8 0C738.7 0 715.3 0 692.2 0C669 0 646 0 623 0C600 0 577 0 554 0C531 0 508 0 484.8 0C461.7 0 438.3 0 415.2 0C392 0 369 0 346 0C323 0 300 0 277 0C254 0 231 0 207.8 0C184.7 0 161.3 0 138.2 0C115 0 92 0 69 0C46 0 23 0 11.5 0L0 0Z" fill="#003c8d"></path><path d="M0 163L11.5 175C23 187 46 211 69 236C92 261 115 287 138.2 296C161.3 305 184.7 297 207.8 279C231 261 254 233 277 225C300 217 323 229 346 237C369 245 392 249 415.2 258C438.3 267 461.7 281 484.8 266C508 251 531 207 554 200C577 193 600 223 623 253C646 283 669 313 692.2 316C715.3 319 738.7 295 761.8 277C785 259 808 247 831 235C854 223 877 211 888.5 205L900 199L900 59L888.5 57C877 55 854 51 831 57C808 63 785 79 761.8 80C738.7 81 715.3 67 692.2 65C669 63 646 73 623 74C600 75 577 67 554 66C531 65 508 71 484.8 70C461.7 69 438.3 61 415.2 65C392 69 369 85 346 95C323 105 300 109 277 110C254 111 231 109 207.8 102C184.7 95 161.3 83 138.2 74C115 65 92 59 69 57C46 55 23 57 11.5 58L0 59Z" fill="#0146a6"></path><path d="M0 259L11.5 264C23 269 46 279 69 295C92 311 115 333 138.2 344C161.3 355 184.7 355 207.8 343C231 331 254 307 277 304C300 301 323 319 346 326C369 333 392 329 415.2 331C438.3 333 461.7 341 484.8 329C508 317 531 285 554 282C577 279 600 305 623 326C646 347 669 363 692.2 362C715.3 361 738.7 343 761.8 335C785 327 808 329 831 321C854 313 877 295 888.5 286L900 277L900 197L888.5 203C877 209 854 221 831 233C808 245 785 257 761.8 275C738.7 293 715.3 317 692.2 314C669 311 646 281 623 251C600 221 577 191 554 198C531 205 508 249 484.8 264C461.7 279 438.3 265 415.2 256C392 247 369 243 346 235C323 227 300 215 277 223C254 231 231 259 207.8 277C184.7 295 161.3 303 138.2 294C115 285 92 259 69 234C46 209 23 185 11.5 173L0 161Z" fill="#0651c0"></path><path d="M0 463L11.5 457C23 451 46 439 69 442C92 445 115 463 138.2 476C161.3 489 184.7 497 207.8 509C231 521 254 537 277 529C300 521 323 489 346 483C369 477 392 497 415.2 509C438.3 521 461.7 525 484.8 512C508 499 531 469 554 466C577 463 600 487 623 503C646 519 669 527 692.2 517C715.3 507 738.7 479 761.8 465C785 451 808 451 831 455C854 459 877 467 888.5 471L900 475L900 275L888.5 284C877 293 854 311 831 319C808 327 785 325 761.8 333C738.7 341 715.3 359 692.2 360C669 361 646 345 623 324C600 303 577 277 554 280C531 283 508 315 484.8 327C461.7 339 438.3 331 415.2 329C392 327 369 331 346 324C323 317 300 299 277 302C254 305 231 329 207.8 341C184.7 353 161.3 353 138.2 342C115 331 92 309 69 293C46 277 23 267 11.5 262L0 257Z" fill="#3065cc"></path><path d="M0 601L11.5 601C23 601 46 601 69 601C92 601 115 601 138.2 601C161.3 601 184.7 601 207.8 601C231 601 254 601 277 601C300 601 323 601 346 601C369 601 392 601 415.2 601C438.3 601 461.7 601 484.8 601C508 601 531 601 554 601C577 601 600 601 623 601C646 601 669 601 692.2 601C715.3 601 738.7 601 761.8 601C785 601 808 601 831 601C854 601 877 601 888.5 601L900 601L900 473L888.5 469C877 465 854 457 831 453C808 449 785 449 761.8 463C738.7 477 715.3 505 692.2 515C669 525 646 517 623 501C600 485 577 461 554 464C531 467 508 497 484.8 510C461.7 523 438.3 519 415.2 507C392 495 369 475 346 481C323 487 300 519 277 527C254 535 231 519 207.8 507C184.7 495 161.3 487 138.2 474C115 461 92 443 69 440C46 437 23 449 11.5 455L0 461Z" fill="#4b7ad7"></path></svg>