<svg id="visual" viewBox="0 0 900 600" width="900" height="600" xmlns="http://www.w3.org/2000/svg" xmlns:xlink="http://www.w3.org/1999/xlink" version="1.1"><path d="M0 146L9.3 163.7C18.7 181.3 37.3 216.7 56.2 243.2C75 269.7 94 287.3 112.8 271.8C131.7 256.3 150.3 207.7 169 197.8C187.7 188 206.3 217 225 236.3C243.7 255.7 262.3 265.3 281.2 259.5C300 253.7 319 232.3 337.8 245.8C356.7 259.3 375.3 307.7 394 330.3C412.7 353 431.3 350 450 333.8C468.7 317.7 487.3 288.3 506.2 287.5C525 286.7 544 314.3 562.8 294.2C581.7 274 600.3 206 619 173.5C637.7 141 656.3 144 675 157.7C693.7 171.3 712.3 195.7 731.2 211C750 226.3 769 232.7 787.8 235C806.7 237.3 825.3 235.7 844 240.3C862.7 245 881.3 256 890.7 261.5L900 267L900 0L890.7 0C881.3 0 862.7 0 844 0C825.3 0 806.7 0 787.8 0C769 0 750 0 731.2 0C712.3 0 693.7 0 675 0C656.3 0 637.7 0 619 0C600.3 0 581.7 0 562.8 0C544 0 525 0 506.2 0C487.3 0 468.7 0 450 0C431.3 0 412.7 0 394 0C375.3 0 356.7 0 337.8 0C319 0 300 0 281.2 0C262.3 0 243.7 0 225 0C206.3 0 187.7 0 169 0C150.3 0 131.7 0 112.8 0C94 0 75 0 56.2 0C37.3 0 18.7 0 9.3 0L0 0Z" fill="#fff" stroke-linecap="round" stroke-linejoin="miter"></path></svg>